<?xml version="1.0" standalone="no"?>
<!DOCTYPE svg PUBLIC "-//W3C//DTD SVG 1.1//EN" "http://www.w3.org/Graphics/SVG/1.1/DTD/svg11.dtd" >
<svg xmlns="http://www.w3.org/2000/svg" xmlns:xlink="http://www.w3.org/1999/xlink" version="1.1">
<metadata>
Created by FontForge 20200314 at Tue Sep 26 20:52:36 2023
 By Unknown
Copyright 2023, Kris Sowersby, Klim Type Foundry.
</metadata>
<defs>
<font id="DomaineSansDisplay-BlackItalic" horiz-adv-x="642" >
  <font-face 
    font-family="Test Domaine Sans Display Black"
    font-weight="900"
    font-style="italic"
    font-stretch="normal"
    units-per-em="1000"
    panose-1="2 11 10 3 8 7 2 11 2 4"
    ascent="800"
    descent="-200"
    x-height="502"
    cap-height="700"
    bbox="-222 -225 1159 774"
    underline-thickness="10"
    underline-position="-115"
    slope="-14"
    unicode-range="U+0020-007A"
  />
<missing-glyph horiz-adv-x="1203" 
d="M707 232l-32 19l-17 29l6 59l24 34l74 55l19 -4l48 -58l21 -65l-38 -41zM658 63l-24 3l-4 9l5 44l-2 37l-11 3l-5 -48l-30 -40l-20 -8l-43 7l-13 19v16l42 74l34 36l16 33v7l16 11l8 -9l1 -18l18 -31l15 -3l14 -31l8 -5l20 -41l-9 -50l-15 -3zM514 405l60 -60l-3 -39
l-8 -12l-17 4l-4 -19l5 -14l-8 -11l-31 -26l-34 1l-27 -12l-46 21l-19 19l-9 29l8 37l-1 6l4 37l20 22l26 43l8 3zM573 -81l-38 -19l-38 15l-2 14l12 28l-6 8l-16 2l-29 -23l-43 21v36l-35 32l-60 105l-33 86l-22 98l5 168l9 67l31 67l51 66l98 59l49 15l5 4l106 6l72 -3
l5 -6l-1 -20l-56 -78l-10 -22l-13 -71l14 -11v-7l-7 -7l-24 -13l-59 19l-32 37l1 9l-8 4l-45 -27l-62 -20l-61 -90l-14 -136l18 -72l43 -91l36 -85l57 -56l36 -17l24 4l102 -17l97 32l45 38l24 27l63 105l68 97l-19 56l10 84l-23 69l7 20l-86 48l-76 21l-83 -16l-3 4l11 81
l14 10l28 91l48 3l99 -30l76 -43l59 -91l8 -27l8 -45l-9 -46l-20 -61l3 -51l32 -40l1 -37l-94 -133l-33 -103l-9 -7l-24 -62l7 -10l-35 -24l-9 3l-30 24l-1 30l-5 2l-19 -23v-11l20 -26l-35 -35l-16 -3l-22 21l6 16l-17 17l-24 -4l-21 -65l-35 -3l-15 23l3 30l-33 -4z" />
    <glyph glyph-name=".notdef" horiz-adv-x="1203" 
d="M707 232l-32 19l-17 29l6 59l24 34l74 55l19 -4l48 -58l21 -65l-38 -41zM658 63l-24 3l-4 9l5 44l-2 37l-11 3l-5 -48l-30 -40l-20 -8l-43 7l-13 19v16l42 74l34 36l16 33v7l16 11l8 -9l1 -18l18 -31l15 -3l14 -31l8 -5l20 -41l-9 -50l-15 -3zM514 405l60 -60l-3 -39
l-8 -12l-17 4l-4 -19l5 -14l-8 -11l-31 -26l-34 1l-27 -12l-46 21l-19 19l-9 29l8 37l-1 6l4 37l20 22l26 43l8 3zM573 -81l-38 -19l-38 15l-2 14l12 28l-6 8l-16 2l-29 -23l-43 21v36l-35 32l-60 105l-33 86l-22 98l5 168l9 67l31 67l51 66l98 59l49 15l5 4l106 6l72 -3
l5 -6l-1 -20l-56 -78l-10 -22l-13 -71l14 -11v-7l-7 -7l-24 -13l-59 19l-32 37l1 9l-8 4l-45 -27l-62 -20l-61 -90l-14 -136l18 -72l43 -91l36 -85l57 -56l36 -17l24 4l102 -17l97 32l45 38l24 27l63 105l68 97l-19 56l10 84l-23 69l7 20l-86 48l-76 21l-83 -16l-3 4l11 81
l14 10l28 91l48 3l99 -30l76 -43l59 -91l8 -27l8 -45l-9 -46l-20 -61l3 -51l32 -40l1 -37l-94 -133l-33 -103l-9 -7l-24 -62l7 -10l-35 -24l-9 3l-30 24l-1 30l-5 2l-19 -23v-11l20 -26l-35 -35l-16 -3l-22 21l6 16l-17 17l-24 -4l-21 -65l-35 -3l-15 23l3 30l-33 -4z" />
    <glyph glyph-name=".null" horiz-adv-x="0" 
 />
    <glyph glyph-name="nonmarkingreturn" horiz-adv-x="333" 
 />
    <glyph glyph-name="space" unicode=" " horiz-adv-x="250" 
 />
    <glyph glyph-name="comma" unicode="," horiz-adv-x="328" 
d="M-12 0l56 225h228l-57 -229q-48 -192 -264 -192l2 10q205 0 250 180l2 6h-217z" />
    <glyph glyph-name="hyphen" unicode="-" horiz-adv-x="350" 
d="M58 279l4 13h249l-4 -13h-249z" />
    <glyph glyph-name="period" unicode="." horiz-adv-x="328" 
d="M-12 0l56 225h228l-56 -225h-228z" />
    <glyph glyph-name="zero" unicode="0" horiz-adv-x="702" 
d="M457 710q110 0 185.5 -78t75.5 -199q0 -111 -57.5 -213.5t-155.5 -166t-209 -63.5q-110 0 -185.5 78t-75.5 199q0 111 57.5 213.5t155.5 166t209 63.5zM462 700q-45 0 -78 -77.5t-81 -272.5q-53 -209 -53 -289q0 -61 41 -61q45 0 78 77.5t81 272.5q53 209 53 289
q0 61 -41 61z" />
    <glyph glyph-name="one" unicode="1" horiz-adv-x="465" 
d="M343 0h-236l150 600q-80 -103 -204 -182l-5 8q151 98 274 274h196z" />
    <glyph glyph-name="two" unicode="2" horiz-adv-x="588" 
d="M129 187h412l-47 -187h-580l2 9l252 215q224 191 224 351q0 49 -27.5 76t-77.5 27q-72 0 -133.5 -57.5t-61.5 -132.5q0 -40 23 -67t62 -31l-3 -9q-41 3 -66.5 33t-25.5 74q0 94 85 158t206 64q111 0 180 -45t69 -128q0 -53 -28 -100.5t-73.5 -83t-112 -68t-133 -55
t-146.5 -43.5z" />
    <glyph glyph-name="three" unicode="3" horiz-adv-x="621" 
d="M247 -10q-100 0 -172.5 41.5t-72.5 113.5q0 67 51 109.5t118 48.5v-9q-65 -6 -112 -47t-47 -102q0 -59 51 -94.5t115 -35.5q61 0 104 43t59.5 98t16.5 112q0 50 -20 74t-64 24h-27l2 10h27q58 0 103 61t45 148q0 99 -92 99q-66 0 -129 -49t-63 -124q0 -67 78 -81l-5 -8
q-39 6 -61 29t-22 60q0 87 82.5 143t198.5 56q101 0 165.5 -40t64.5 -108q0 -58 -45.5 -102.5t-112.5 -66t-141 -21.5v-2q57 -1 109 -15t93 -50t41 -88q0 -108 -98 -167.5t-240 -59.5z" />
    <glyph glyph-name="four" unicode="4" horiz-adv-x="677" 
d="M652 215l-3 -11h-121l-51 -204h-236l51 204h-299l2 7l452 489h205l-121 -485h121zM295 215l104 418l-385 -418h281z" />
    <glyph glyph-name="five" unicode="5" horiz-adv-x="593" 
d="M638 700l-73 -202h-388l-60 -159q83 102 226 102q100 0 163 -49t63 -133q0 -88 -53.5 -150.5t-133 -90.5t-173.5 -28q-98 0 -155.5 40t-57.5 106q0 52 35.5 88t86.5 49v-10q-48 -13 -80 -46t-32 -81q0 -56 43 -89t93 -33q93 0 141.5 74t48.5 192q0 123 -90 123
q-32 0 -68 -23.5t-64 -58.5h-8l141 379h395z" />
    <glyph glyph-name="six" unicode="6" horiz-adv-x="651" 
d="M637 288q0 -94 -50 -163.5t-126 -102t-165 -32.5q-110 0 -185.5 78.5t-75.5 195.5q0 182 138.5 314t330.5 132q90 0 135.5 -39t45.5 -97q0 -43 -21.5 -75t-49.5 -46l-4 8q28 14 46.5 44t18.5 69q0 51 -35.5 84.5t-95.5 33.5q-83 0 -142 -96q-38 -63 -108 -260
q-1 -5 -4 -13.5t-5 -12.5q26 69 76.5 103.5t111.5 34.5q69 0 116.5 -44t47.5 -116zM374 394q-43 0 -81 -88q-26 -57 -42.5 -131t-15.5 -114q0 -60 41 -60q37 0 71 64.5t51.5 141t17.5 128.5q0 59 -42 59z" />
    <glyph glyph-name="seven" unicode="7" horiz-adv-x="592" 
d="M150 700h546l-1 -2l-225 -262q-136 -159 -136 -436h-231q21 65 67 132.5t83 107t113.5 114t104.5 102.5l41 42h-413z" />
    <glyph glyph-name="eight" unicode="8" horiz-adv-x="627" 
d="M619 569q0 -56 -33.5 -96.5t-82.5 -61.5q100 -58 100 -150q0 -64 -31 -117t-80.5 -85.5t-108.5 -50.5t-118 -18q-101 0 -181.5 46.5t-80.5 128.5q0 67 50.5 110t125.5 54q-79 51 -79 136q0 108 88.5 176.5t220.5 68.5q87 0 148.5 -37.5t61.5 -103.5zM424 699
q-68 0 -113 -31t-45 -85q0 -56 81 -96l148 -71q114 55 114 153q0 63 -58 96.5t-127 33.5zM329 255l-138 67q-77 -9 -127.5 -50.5t-50.5 -106.5q0 -77 76.5 -120t162.5 -43q83 0 128 38t45 100q0 39 -22.5 64.5t-73.5 50.5z" />
    <glyph glyph-name="nine" unicode="9" horiz-adv-x="650" 
d="M327 306q43 0 81 88q26 57 42.5 131t15.5 114q0 60 -41 60q-37 0 -71 -64.5t-51.5 -141t-17.5 -128.5q0 -59 42 -59zM64 412q0 94 50 163.5t126 102t165 32.5q110 0 185.5 -78.5t75.5 -195.5q0 -182 -138.5 -314t-330.5 -132q-90 0 -135.5 39t-45.5 97q0 43 21.5 75
t49.5 46l4 -8q-28 -14 -46.5 -44t-18.5 -69q0 -51 35.5 -84.5t95.5 -33.5q31 0 56.5 9t49 38t38.5 49.5t38 77t33.5 84.5t37.5 107q4 11 6 17q-26 -69 -76.5 -103.5t-111.5 -34.5q-69 0 -116.5 44t-47.5 116z" />
    <glyph glyph-name="A" unicode="A" horiz-adv-x="736" 
d="M364 189l-68 266l-196 -266h264zM412 0l-45 178h-275l-131 -178h-13l522 710h4l190 -710h-252z" />
    <glyph glyph-name="B" unicode="B" horiz-adv-x="737" 
d="M358 0h-370l175 700h355q109 0 173 -38t64 -111q0 -47 -24.5 -83t-66 -58t-90 -34.5t-104.5 -16.5v-2q43 -1 82.5 -9t76 -24t58.5 -45t22 -68q0 -105 -101.5 -158t-249.5 -53zM403 689l-81 -326h34q80 0 127.5 65.5t47.5 160.5q0 100 -101 100h-27zM353 352h-34l-85 -341
h33q104 0 156.5 61.5t52.5 168.5q0 59 -30.5 85t-92.5 26z" />
    <glyph glyph-name="C" unicode="C" horiz-adv-x="691" 
d="M490 710q54 0 97.5 -14t70 -37t44 -53t19 -62t-4.5 -63l-11 1q19 75 -26.5 138.5t-124.5 63.5q-72 0 -134 -78.5t-94 -187.5t-32 -210q0 -186 133 -186q73 0 133 47t82 120l12 -4q-28 -85 -106 -140t-194 -55q-136 0 -225 83.5t-89 211.5q0 175 130.5 300t319.5 125z" />
    <glyph glyph-name="D" unicode="D" horiz-adv-x="796" 
d="M318 0h-330l175 700h286q161 0 260 -74t99 -201q0 -88 -31 -160.5t-80.5 -120.5t-115 -81.5t-131.5 -48t-132 -14.5zM286 11q76 0 141 71t101.5 185.5t36.5 242.5q0 81 -35 130t-110 49h-17l-169 -678h52z" />
    <glyph glyph-name="E" unicode="E" horiz-adv-x="687" 
d="M-12 0l175 700h580l-3 -11h-336l-80 -320h232l-3 -11h-232l-86 -347h361l-3 -11h-605z" />
    <glyph glyph-name="F" unicode="F" horiz-adv-x="643" 
d="M-12 0l175 700h571l-3 -11h-327l-82 -330h233l-3 -11h-233l-87 -348h-244z" />
    <glyph glyph-name="G" unicode="G" horiz-adv-x="784" 
d="M364 -10q-142 0 -233 81t-91 214q0 117 63 215.5t169 154t228 55.5q69 0 120 -20.5t75.5 -53.5t35.5 -74t0 -81l-11 1q16 78 -28.5 140t-123.5 62q-82 0 -150.5 -89.5t-103.5 -211t-35 -233.5q0 -70 22.5 -109.5t63.5 -39.5q48 0 75 36.5t47 115.5l43 172h237l-83 -335
h-2l-119 96q-93 -96 -199 -96z" />
    <glyph glyph-name="H" unicode="H" horiz-adv-x="823" 
d="M-12 0l175 700h244l-83 -331h235l83 331h244l-175 -700h-244l89 358h-235l-89 -358h-244z" />
    <glyph glyph-name="I" unicode="I" horiz-adv-x="344" 
d="M407 700l-175 -700h-244l175 700h244z" />
    <glyph glyph-name="J" unicode="J" horiz-adv-x="614" 
d="M314 186l129 514h243l-111 -442q-34 -136 -131 -202t-238 -66q-93 0 -153 48.5t-60 122.5q0 64 37 110t94 63l2 -8q-58 -20 -90.5 -62t-32.5 -103q0 -64 42.5 -103t98.5 -39q127 0 170 167z" />
    <glyph glyph-name="K" unicode="K" horiz-adv-x="797" 
d="M464 0l-88 331l-77 -65l-67 -266h-244l175 700h244l-104 -418l496 418h15l-236 -198l147 -502h-261z" />
    <glyph glyph-name="L" unicode="L" horiz-adv-x="647" 
d="M-12 0l175 700h244l-172 -689h331l-3 -11h-575z" />
    <glyph glyph-name="M" unicode="M" horiz-adv-x="907" 
d="M471 301l252 399h247l-175 -700h-237l172 690l-442 -700h-4l-112 700l-172 -690h-12l175 700h244z" />
    <glyph glyph-name="N" unicode="N" horiz-adv-x="715" 
d="M658 269l107 430h11l-176 -709h-4l-488 446l-109 -438h-11l177 712h4z" />
    <glyph glyph-name="O" unicode="O" horiz-adv-x="815" 
d="M515 710q126 0 218.5 -85t92.5 -212q0 -112 -60 -208.5t-169.5 -155.5t-244.5 -59q-127 0 -219.5 85.5t-92.5 211.5q0 112 60 208.5t170 155.5t245 59zM515 700q-50 0 -88.5 -57.5t-74.5 -161.5q-35 -99 -55.5 -204.5t-20.5 -174.5q0 -102 75 -102q50 0 88.5 57.5
t74.5 161.5q35 99 55.5 204.5t20.5 174.5q0 102 -75 102z" />
    <glyph glyph-name="P" unicode="P" horiz-adv-x="738" 
d="M437 290h-133l-72 -290h-244l175 700h377q110 0 179.5 -43.5t69.5 -123.5q0 -121 -99 -182t-253 -61zM306 301h27q92 0 153 75.5t61 190.5q0 122 -117 122h-27z" />
    <glyph glyph-name="Q" unicode="Q" horiz-adv-x="815" 
d="M516 -164q-61 0 -104 41.5t-56 112.5h-4q-127 0 -219.5 85.5t-92.5 211.5q0 112 60 208.5t170 155.5t245 59q126 0 218.5 -85t92.5 -212q0 -169 -130.5 -293.5t-327.5 -129.5q12 -69 53 -106.5t97 -37.5q100 0 134 109l11 -1q-15 -55 -54 -86.5t-93 -31.5zM515 700
q-50 0 -88.5 -57.5t-74.5 -161.5q-35 -99 -55.5 -204.5t-20.5 -174.5q0 -102 75 -102q50 0 88.5 57.5t74.5 161.5q35 99 55.5 204.5t20.5 174.5q0 102 -75 102z" />
    <glyph glyph-name="R" unicode="R" horiz-adv-x="780" 
d="M404 689l-87 -347h41q94 0 149 67.5t55 165.5q0 114 -108 114h-50zM314 331l-82 -331h-244l175 700h389q120 0 186.5 -39.5t66.5 -110.5q0 -70 -50.5 -120t-122.5 -71.5t-155 -22.5v-2q186 0 197 -125l6 -68q3 -39 5 -55.5t8.5 -39.5t19.5 -46h-253q-17 42 -20 118l-3 86
q-2 72 -24 99.5t-79 27.5h-20z" />
    <glyph glyph-name="S" unicode="S" horiz-adv-x="627" 
d="M264 1q82 0 132 36t50 101q0 36 -24 58t-72 38l-128 43q-144 49 -144 172q0 112 88 186.5t234 74.5q105 0 169.5 -42.5t78.5 -117.5l-11 -4q-14 73 -75 113.5t-162 40.5q-79 0 -123 -30t-44 -81q0 -24 14 -41t30.5 -25.5t47.5 -20.5l146 -54q139 -52 139 -173
q0 -128 -98.5 -206.5t-247.5 -78.5q-108 0 -184.5 49.5t-101.5 124.5l12 4q23 -73 97 -120t177 -47z" />
    <glyph glyph-name="T" unicode="T" horiz-adv-x="805" 
d="M219 0l172 689h-271l3 11h785l-3 -11h-271l-171 -689h-244z" />
    <glyph glyph-name="U" unicode="U" horiz-adv-x="709" 
d="M770 700h11l-103 -413q-37 -149 -125.5 -223t-235.5 -74q-66 0 -121.5 18.5t-95 56.5t-52.5 95.5t5 135.5l101 404h243l-103 -410q-30 -124 8 -186.5t130 -62.5q79 0 143 65.5t93 185.5z" />
    <glyph glyph-name="V" unicode="V" horiz-adv-x="736" 
d="M317 -10h-4l-190 710h252l116 -455l335 455h13z" />
    <glyph glyph-name="W" unicode="W" horiz-adv-x="1056" 
d="M649 -10l-82 417l-296 -417h-4l-144 710h246l85 -434l110 156l-55 278h248l73 -444l316 444h13l-506 -710h-4z" />
    <glyph glyph-name="X" unicode="X" horiz-adv-x="757" 
d="M-37 0h-15l340 319l-163 381h260l112 -261l273 261h15l-284 -271l184 -429h-260l-132 308z" />
    <glyph glyph-name="Y" unicode="Y" horiz-adv-x="726" 
d="M507 362l309 338h13l-317 -348l-88 -352h-245l85 342l-141 358h262z" />
    <glyph glyph-name="Z" unicode="Z" horiz-adv-x="704" 
d="M625 11l-2 -11h-667l1 4l545 685h-357l2 11h642l-1 -4l-536 -685h373z" />
    <glyph glyph-name="a" unicode="a" horiz-adv-x="654" 
d="M325 98v4q-56 -112 -159 -112q-74 0 -115 52.5t-41 133.5q0 133 76.5 234.5t191.5 101.5q52 0 84.5 -31.5t33.5 -85.5l34 107h217l-99 -397q-5 -22 -5 -33q0 -28 23 -28q30 0 66 70l7 -3q-34 -72 -78.5 -96.5t-101.5 -24.5q-62 0 -98 31t-36 77zM331 129l49 200
q9 38 9 63q0 49 -28 49q-44 0 -84.5 -98.5t-40.5 -212.5q0 -76 29 -76q33 0 66 75z" />
    <glyph glyph-name="b" unicode="b" horiz-adv-x="644" 
d="M243 107l-44 -107h-207l187 749h223l-87 -349q58 112 167 112q73 0 113 -51.5t40 -131.5q0 -134 -74 -236.5t-190 -102.5q-54 0 -90.5 32t-37.5 85zM309 373l-50 -200q-9 -38 -9 -63t9.5 -39t25.5 -14q28 0 57 46t48 120.5t19 148.5q0 77 -33 77q-18 0 -36.5 -23.5
t-30.5 -52.5z" />
    <glyph glyph-name="c" unicode="c" horiz-adv-x="517" 
d="M412 481q-52 0 -95 -52t-65 -126.5t-22 -150.5q0 -132 92 -132q46 0 89.5 31.5t67.5 98.5l9 -3q-56 -157 -254 -157q-88 0 -154.5 55t-66.5 154q0 130 98 221.5t231 91.5q83 0 130 -34.5t47 -95.5q0 -73 -62 -107l-5 8q57 30 57 99q0 45 -27 72t-70 27z" />
    <glyph glyph-name="d" unicode="d" horiz-adv-x="660" 
d="M330 98v4q-26 -51 -68 -81.5t-94 -30.5q-75 0 -116.5 52.5t-41.5 133.5q0 134 74 235t190 101q54 0 90.5 -32t37.5 -85l89 354h224l-161 -644q-5 -22 -5 -33q0 -28 23 -28q30 0 66 70l7 -3q-34 -72 -78.5 -96.5t-101.5 -24.5q-62 0 -98.5 31t-36.5 77zM336 129l50 200
q9 38 9 63q0 52 -35 52q-28 0 -57 -46t-48 -120t-19 -148q0 -77 33 -77q18 0 36.5 23.5t30.5 52.5z" />
    <glyph glyph-name="e" unicode="e" horiz-adv-x="542" 
d="M246 -10q-94 0 -165 52t-71 146q0 136 105.5 230t252.5 94q86 0 133.5 -34t47.5 -89t-47.5 -92t-115.5 -53t-154 -18q-5 -42 -5 -74q0 -64 27 -98t73 -34q49 0 96 29.5t77 100.5l9 -3q-30 -81 -99.5 -119t-163.5 -38zM368 502q-41 0 -80.5 -83t-54.5 -186q82 4 125 63.5
t43 151.5q0 54 -33 54z" />
    <glyph glyph-name="f" unicode="f" horiz-adv-x="372" 
d="M359 580l-19 -78h119l-4 -10h-117l-177 -707h-223l177 707h-71l3 10h71l14 49q28 96 97 152t179 56q75 0 113 -30t38 -82q0 -63 -57 -91l-5 8q52 22 52 83q0 35 -21 56.5t-55 21.5q-44 0 -69 -34t-45 -111z" />
    <glyph glyph-name="g" unicode="g" 
d="M339 139l47 190q9 38 9 63q0 52 -35 52q-42 0 -81.5 -97.5t-39.5 -206.5q0 -77 33 -77q18 0 36.5 23.5t30.5 52.5zM296 -23l37 135q-58 -112 -164 -112q-74 0 -116.5 48.5t-42.5 127.5q0 134 74 235t190 101q54 0 90.5 -32t37.5 -85l34 107h217l-112 -448
q-46 -150 -140 -214.5t-238 -64.5q-110 0 -166 41.5t-56 101.5q0 69 60 100l5 -8q-55 -28 -55 -92q0 -52 44 -87t112 -35q77 0 120.5 45.5t68.5 135.5z" />
    <glyph glyph-name="h" unicode="h" horiz-adv-x="662" 
d="M301 344l-85 -344h-224l187 749h224l-89 -355q63 118 180 118q66 0 99.5 -35t33.5 -90q0 -21 -7 -52l-58 -230q-5 -22 -5 -34q0 -27 23 -27q30 0 66 70l7 -3q-34 -72 -78.5 -96.5t-101.5 -24.5q-63 0 -97 30.5t-34 79.5q0 19 4 35l71 285q3 12 3 21q0 23 -22 23
q-23 0 -53 -36.5t-44 -83.5z" />
    <glyph glyph-name="i" unicode="i" horiz-adv-x="338" 
d="M123 556l48 193h223l-48 -193h-223zM334 502l-99 -397q-5 -22 -5 -34q0 -27 23 -27q30 0 66 70l7 -3q-34 -72 -78.5 -96.5t-101.5 -24.5q-63 0 -97 30.5t-34 79.5q0 19 4 35l91 367h224z" />
    <glyph glyph-name="j" unicode="j" horiz-adv-x="325" 
d="M125 556l48 193h223l-48 -193h-223zM-33 -82l145 584h224l-132 -532q-24 -96 -91 -145.5t-165 -49.5q-84 0 -127 31.5t-43 82.5q0 27 15 51t41 38l4 -8q-50 -28 -50 -81q0 -39 24 -61t56 -22q40 0 62.5 29.5t36.5 82.5z" />
    <glyph glyph-name="k" unicode="k" horiz-adv-x="633" 
d="M447 -10q-110 0 -140 136l-22 106l-20 -14l-54 -218h-224l187 749h224l-129 -516l375 269h17l-204 -146l64 -220q11 -36 20.5 -49.5t25.5 -13.5t29.5 16t30.5 61l8 -2q-54 -158 -188 -158z" />
    <glyph glyph-name="l" unicode="l" horiz-adv-x="343" 
d="M398 749l-161 -644q-5 -22 -5 -34q0 -27 23 -27q30 0 66 70l7 -3q-34 -72 -78.5 -96.5t-101.5 -24.5q-63 0 -97 30.5t-34 79.5q0 19 4 35l153 614h224z" />
    <glyph glyph-name="m" unicode="m" horiz-adv-x="973" 
d="M931 335l-58 -230q-5 -22 -5 -34q0 -27 23 -27q30 0 66 70l7 -3q-34 -72 -78.5 -96.5t-101.5 -24.5q-63 0 -97 30.5t-34 79.5q0 19 4 35l71 285q3 14 3 22q0 22 -20 22q-22 0 -52 -38t-42 -84l-86 -342h-224l105 420q3 13 3 22q0 22 -20 22q-22 0 -52 -38t-42 -84
l-85 -342h-224l125 502h220l-23 -107q63 117 175 117q63 0 98 -36t35 -95q63 131 183 131q65 0 99 -35.5t34 -91.5q0 -20 -7 -50z" />
    <glyph glyph-name="n" unicode="n" horiz-adv-x="662" 
d="M620 335l-58 -230q-5 -22 -5 -34q0 -27 23 -27q30 0 66 70l7 -3q-34 -72 -78.5 -96.5t-101.5 -24.5q-63 0 -97 30.5t-34 79.5q0 19 4 35l71 285q3 12 3 21q0 23 -22 23q-23 0 -53 -36.5t-44 -83.5l-85 -344h-224l125 502h220l-23 -108q63 118 180 118q66 0 99.5 -35
t33.5 -90q0 -21 -7 -52z" />
    <glyph glyph-name="o" unicode="o" horiz-adv-x="612" 
d="M13 199q0 93 49.5 165.5t127.5 110t168 37.5q104 0 173 -58.5t69 -150.5q0 -93 -49.5 -165.5t-127.5 -110t-168 -37.5q-104 0 -173 58.5t-69 150.5zM220 53q0 -53 29 -53q50 0 103 211q41 162 41 238q0 53 -29 53q-50 0 -103 -211q-41 -162 -41 -238z" />
    <glyph glyph-name="p" unicode="p" horiz-adv-x="645" 
d="M309 373l-50 -200q-9 -38 -9 -63t9.5 -39t25.5 -14q28 0 57 46t48 120.5t19 148.5q0 77 -33 77q-18 0 -36.5 -23.5t-30.5 -52.5zM243 107l-81 -322h-224l179 717h220l-22 -102q58 112 167 112q73 0 113 -51.5t40 -131.5q0 -134 -74 -236.5t-190 -102.5q-54 0 -90.5 32
t-37.5 85z" />
    <glyph glyph-name="q" unicode="q" 
d="M330 102q-58 -112 -167 -112q-72 0 -112.5 52.5t-40.5 133.5q0 134 74 235t190 101q54 0 90.5 -32t37.5 -85l34 107h217l-179 -717h-227zM336 129l50 200q9 38 9 63q0 52 -35 52q-28 0 -57 -46t-48 -120t-19 -148q0 -77 33 -77q18 0 36.5 23.5t30.5 52.5z" />
    <glyph glyph-name="r" unicode="r" horiz-adv-x="531" 
d="M306 364q62 148 156 148q45 0 70 -27t25 -73q0 -41 -22 -75t-55 -55l-5 8q72 47 72 122q0 41 -21.5 65.5t-63.5 24.5q-55 0 -94.5 -51t-72.5 -135l-79 -316h-224l125 502h220z" />
    <glyph glyph-name="s" unicode="s" horiz-adv-x="496" 
d="M296 502q-45 0 -67.5 -18t-22.5 -48q0 -28 20.5 -44.5t69.5 -35.5q90 -37 129 -71.5t39 -94.5q0 -87 -71 -143.5t-186 -56.5q-86 0 -151 35t-65 91q0 27 15.5 46.5t39.5 26.5l2 -9q-47 -16 -47 -64q0 -51 58 -81.5t123 -30.5q110 0 110 81q0 27 -19.5 44t-72.5 38
q-81 35 -115.5 65.5t-34.5 87.5q0 84 67.5 138t178.5 54q79 0 128.5 -29t49.5 -75q0 -47 -48 -65l-3 8q41 17 41 57q0 42 -45.5 68t-122.5 26z" />
    <glyph glyph-name="t" unicode="t" horiz-adv-x="433" 
d="M46 492l3 10h64l17 60l247 101l-40 -161h145l-5 -10h-143l-94 -375q-4 -20 -4 -28q0 -25 14 -40t38 -15q41 0 75 44.5t58 122.5l9 -2q-30 -98 -84.5 -153.5t-153.5 -55.5q-71 0 -118 37.5t-47 105.5q0 27 7 55l76 304h-64z" />
    <glyph glyph-name="u" unicode="u" horiz-adv-x="657" 
d="M335 502l-104 -416q-3 -10 -3 -18q0 -26 25 -26q22 0 48 33.5t41 78.5l87 348h224l-99 -397q-5 -22 -5 -33q0 -28 23 -28q30 0 66 70l7 -3q-34 -72 -78.5 -96.5t-101.5 -24.5q-62 0 -98 31t-36 77v10q-63 -118 -178 -118q-66 0 -99.5 35t-33.5 90q0 21 7 52l83 335h225z
" />
    <glyph glyph-name="v" unicode="v" horiz-adv-x="574" 
d="M36 210l73 292h223l-76 -306q-14 -61 -14 -96q0 -76 63 -76q96 0 177.5 109.5t81.5 243.5q0 61 -26 93t-75 32q-64 0 -94 -65l-8 6q13 30 40 49.5t62 19.5q53 0 82 -35t29 -99q0 -96 -42 -184t-123 -146t-181 -58q-92 0 -145.5 45.5t-53.5 119.5q0 28 7 55z" />
    <glyph glyph-name="w" unicode="w" horiz-adv-x="859" 
d="M771 512q88 0 88 -134q0 -94 -42.5 -183.5t-119 -147t-164.5 -57.5q-65 0 -113.5 30.5t-55.5 89.5q-15 -50 -61 -85t-114 -35q-75 0 -118.5 40.5t-43.5 112.5q0 31 9 67l73 292h223l-86 -346q-11 -47 -11 -73q0 -53 36 -53q30 0 57 36.5t44 102.5l83 333h215l-96 -386
q-5 -23 -5 -37q0 -49 47 -49q51 0 105.5 50t91 132.5t36.5 165.5q0 124 -78 124q-53 0 -80 -65l-8 6q28 69 88 69z" />
    <glyph glyph-name="x" unicode="x" horiz-adv-x="686" 
d="M447 391q26 41 78.5 81t104.5 40q89 0 89 -91q0 -45 -27 -84.5t-58 -57.5l-4 8q29 16 54 53t25 81q0 81 -77 81q-44 0 -84 -47t-64.5 -113.5t-39 -131.5t-14.5 -106q0 -78 50 -78q33 0 70.5 30t68.5 95l8 -4q-36 -78 -96 -117.5t-131 -39.5q-56 0 -96.5 32.5t-54.5 88.5
q-27 -41 -78 -81t-102 -40q-45 0 -68.5 27t-23.5 71q0 45 28.5 81.5t61.5 53.5l4 -8q-30 -15 -57 -49.5t-27 -77.5q0 -39 20 -63.5t60 -24.5q53 0 101.5 75.5t73.5 167.5t25 159q0 74 -49 74q-71 0 -131 -125l-8 4q72 157 221 157q57 0 95 -32.5t52 -88.5z" />
    <glyph glyph-name="y" unicode="y" 
d="M653 502l-112 -448q-34 -137 -138.5 -208t-248.5 -71q-105 0 -159 42t-54 102q0 70 56 99l5 -8q-51 -26 -51 -91q0 -53 45 -89.5t116 -36.5q140 0 186 184l39 156q-63 -118 -178 -118q-66 0 -99.5 35t-33.5 90q0 20 7 52l77 310h225l-98 -391q-3 -11 -3 -18q0 -26 25 -26
q21 0 51 40t42 86l77 309h224z" />
    <glyph glyph-name="z" unicode="z" horiz-adv-x="509" 
d="M281 -20q-47 0 -98 17.5t-93 37t-61 22.5l-79 -64l-6 8l393 321h-309l57 180h473l6 -8l-352 -287q4 -2 20.5 -9t21.5 -9.5t20.5 -8.5t22.5 -8.5t20.5 -7t23 -6.5t22 -4.5t23.5 -3.5t23 -1q38 0 55 17t24 70l10 -2q-10 -72 -33.5 -126t-71 -91t-112.5 -37z" />
    </font>
</defs>
</svg>
